<?xml version="1.0" encoding="utf-8"?>
<svg fill="#000000" version="1.1" id="Capa_1" xmlns="http://www.w3.org/2000/svg" width="800px" height="800px" viewBox="0 0 971.979 1130.715" xmlns:bx="https://boxy-svg.com" preserveAspectRatio="none"><defs><bx:export><bx:file format="svg"/></bx:export></defs><g><path d="M 857.7 141.3 C 827.6 111.2 792.6 87.8 753.4 71.9 C 715.6 56.6 675.7 48.7 634.7 48.7 C 593.8 48.7 553.8 56.4 516 71.6 C 476.9 87.4 441.8 110.5 411.7 140.4 L 73.1 478.3 C 49.3 501.9 30.9 529.4 18.3 560.2 C 6.2 589.9 0 621.3 0 653.6 C 0 685.7 6.1 717 18.1 746.7 C 30.5 777.4 48.8 804.9 72.4 828.599 C 96 852.299 123.6 870.599 154.3 883.099 C 184 895.2 215.4 901.299 247.6 901.299 C 279.8 901.299 311.2 895.199 340.9 883.199 C 371.7 870.699 399.299 852.399 423 828.799 L 692.101 560.799 C 709.401 543.599 722.701 523.499 731.8 501.099 C 740.601 479.499 745 456.599 745 433.2 C 745 385 726.2 340 692.101 306.2 C 658.101 272 612.901 253.1 564.8 252.9 C 516.601 252.8 471.3 271.5 437.2 305.6 L 269.6 473.3 C 261.1 481.8 256.5 493 256.5 504.901 C 256.5 516.8 261.1 528.1 269.6 536.501 L 270.3 537.201 C 287.7 554.701 316.1 554.701 333.6 537.301 L 501.6 369.801 C 536.7 335.001 593.7 334.801 628.799 369.402 C 645.699 386.202 654.9 408.702 654.9 432.801 C 654.9 457.101 645.5 479.902 628.4 496.902 L 359.4 764.902 C 358.9 765.402 358.5 765.801 358.2 766.402 C 328.5 795.301 289.3 811.101 247.7 810.902 C 205.8 810.702 166.5 794.402 137.1 764.902 C 122.4 749.902 111 732.402 103.1 712.902 C 95.5 694 91.7 674 91.7 653.6 C 91.7 611.8 107.8 572.701 137.1 543.3 C 137.5 543 137.8 542.7 138.2 542.401 L 476.1 204.601 C 476.4 204.301 476.7 203.901 476.999 203.501 C 498.399 182.501 523.299 166.101 550.999 155.001 C 577.999 144.201 606.399 138.801 635.6 138.801 C 664.799 138.801 693.299 144.401 720.2 155.201 C 748.1 166.501 773.1 183.001 794.5 204.301 C 815.9 225.701 832.4 250.701 843.7 278.601 C 854.6 305.501 860.1 334.001 860.1 363.201 C 860.1 392.501 854.6 421.101 843.6 448.201 C 832.299 476.201 815.6 501.401 794.1 523.001 L 468.674 853.072 C 460.174 861.572 455.474 872.772 455.474 884.772 C 455.474 896.772 460.174 907.972 468.574 916.372 L 469.074 916.872 C 486.474 934.272 514.874 934.272 532.274 916.872 L 857.5 586.9 C 887.601 556.8 911 521.7 926.9 482.6 C 942.3 444.8 950 404.9 950 363.9 C 950 323 942.2 283.1 926.9 245.4 C 911.101 206.3 887.8 171.3 857.7 141.3 Z"/></g><path d="M 460.969 863.935 C 432.678 909.748 468.036 978.756 514.814 1002.15 C 520.676 1005.08 551.63 1027.01 572.509 1018.1 C 580.247 1014.8 588.342 1009.89 594.604 1003.37 C 617.281 979.772 592.63 942.861 576.191 924.81 C 569.535 917.502 562.845 891.889 576.191 869.57"/></svg>