<?xml version="1.0" encoding="UTF-8"?>
<svg version="1.1" xmlns="http://www.w3.org/2000/svg" width="2015" height="841">
<path d="M0 0 C0.59425781 0.34353516 1.18851563 0.68707031 1.80078125 1.04101562 C13.17110316 7.73017852 18.87260377 17.77146438 22.875 30.1875 C28.28518398 53.65706518 20.32905199 79.92667119 8.875 100.1875 C8.545 100.8475 8.215 101.5075 7.875 102.1875 C8.38135986 101.97657715 8.88771973 101.7656543 9.40942383 101.54833984 C44.07109591 87.19134206 82.05002756 75.87308678 118.6875 90.375 C125.83392587 93.38096589 131.88932203 97.23701633 137.875 102.1875 C138.5040625 102.65542969 139.133125 103.12335938 139.78125 103.60546875 C154.79717385 115.24280974 162.45758186 134.21418996 166.41845703 152.13134766 C166.790402 153.80649234 167.20025268 155.47318469 167.62109375 157.13671875 C173.90944691 184.76210472 163.8952066 214.68326917 149.75 238.3125 C148.47638597 240.2826217 147.18636791 242.24230427 145.875 244.1875 C145.33875 245.0021875 144.8025 245.816875 144.25 246.65625 C140.628277 251.86247682 140.628277 251.86247682 136.99609375 253.4296875 C132.83857313 255.77121977 131.3267784 258.5954306 129.0625 262.6875 C128.47178711 263.70263672 128.47178711 263.70263672 127.86914062 264.73828125 C126.2715448 267.51694705 124.89066242 270.14051273 123.875 273.1875 C123.215 273.1875 122.555 273.1875 121.875 273.1875 C121.60300781 273.78304688 121.33101562 274.37859375 121.05078125 274.9921875 C110.96276349 293.82762266 76.63964957 311.39337961 56.93359375 317.5703125 C51.9955184 318.56675682 47.04729192 318.57524295 42.02734375 318.5234375 C40.98707031 318.74257813 39.94679688 318.96171875 38.875 319.1875 C37.80233738 321.14948749 36.80794963 323.15535705 35.875 325.1875 C33.67974283 326.76600898 31.84639287 327.86747231 29.4375 329 C28.75647217 329.32911377 28.07544434 329.65822754 27.3737793 329.99731445 C4.05041593 340.72731893 -23.143369 348.32027161 -48.875 348.4375 C-50.54949219 348.4684375 -50.54949219 348.4684375 -52.2578125 348.5 C-61.92414147 348.54506447 -70.66045134 346.99170329 -79.125 342.1875 C-82.86628535 347.011789 -84.39264989 350.53769552 -85 356.625 C-86.70499768 372.36103364 -91.83562965 387.69241502 -97.75 402.3125 C-98.109729 403.20590088 -98.46945801 404.09930176 -98.84008789 405.01977539 C-101.05503897 410.27996952 -103.49806565 414.76240534 -107.125 419.1875 C-108.115 419.5175 -109.105 419.8475 -110.125 420.1875 C-110.50563221 422.5135857 -110.83769945 424.84805264 -111.125 427.1875 C-110.795 427.5175 -110.465 427.8475 -110.125 428.1875 C-109.41684896 438.37398041 -109.28706524 450.43059786 -115.125 459.1875 C-115.30380383 461.09864913 -115.39303583 463.01851987 -115.4375 464.9375 C-116.23778963 478.68533264 -119.58953734 492.46789334 -124.29296875 505.37890625 C-125.30158739 508.78358607 -125.71335933 512.09920817 -126.125 515.625 C-128.23622565 533.46944637 -128.23622565 533.46944637 -133.63671875 538.55078125 C-136.125 540.1875 -136.125 540.1875 -138.125 540.1875 C-139.85708445 548.39462766 -140.5485439 556.44853103 -141 564.8125 C-142.18086243 583.20382988 -144.2528073 600.01317717 -158 613.53125 C-163.32619324 617.68254767 -168.07540166 618.74019991 -174.625 619.0625 C-175.72521484 619.15144531 -175.72521484 619.15144531 -176.84765625 619.2421875 C-181.73335028 619.52186945 -184.92298637 618.97041253 -189.125 616.1875 C-197.04640037 607.60598293 -197.52612513 598.32546408 -197.125 587.1875 C-196.76799302 583.36416598 -196.19776002 579.5987248 -195.5625 575.8125 C-195.30448608 574.22876587 -195.30448608 574.22876587 -195.04125977 572.61303711 C-193.33450579 562.59886742 -191.00121233 552.7510643 -188.63378906 542.8762207 C-185.62345898 530.26862495 -183.44125663 517.83100564 -182.1875 504.9375 C-180.83050855 491.09733723 -179.38247887 476.70657819 -173.36035156 464.0324707 C-169.04004397 454.082956 -168.31319211 443.22744303 -167.39648438 432.546875 C-166.57378145 424.29063741 -165.31041727 417.9303558 -159 412.23046875 C-155.33263202 408.79691851 -154.83741352 405.33750193 -154.125 400.5 C-153.80489174 398.6870019 -153.48182224 396.87452487 -153.15625 395.0625 C-152.98996094 394.10214844 -152.82367187 393.14179687 -152.65234375 392.15234375 C-148.50980776 368.86208588 -141.71845057 346.33237162 -134.88873291 323.72479248 C-134.1679184 321.33008457 -133.45401715 318.93347038 -132.74365234 316.53564453 C-119.55810586 272.03552207 -104.06323787 228.19177643 -88.66426086 184.41828918 C-86.71085875 178.86413685 -84.7737842 173.30449776 -82.84375 167.7421875 C-73.5912597 141.11664237 -63.92756344 114.63374438 -53.46777344 88.45654297 C-44.51164772 66.02888556 -36.96350835 42.79987312 -35.41333008 18.52197266 C-34.45810745 10.78798555 -27.51095664 4.30682513 -22.125 -0.8125 C-14.40410397 -6.51057825 -7.95860225 -4.81888993 0 0 Z M14.875 161.1875 C13.25078125 162.29351562 13.25078125 162.29351562 11.59375 163.421875 C-7.52521206 176.61086306 -23.52738636 191.85134869 -35.125 212.1875 C-35.46998535 212.78175781 -35.8149707 213.37601562 -36.17041016 213.98828125 C-48.52167122 235.44909151 -61.11182578 262.13018255 -61.3125 287.375 C-61.32667969 288.19355469 -61.34085938 289.01210938 -61.35546875 289.85546875 C-61.08912106 292.55054622 -60.79219874 294.03303974 -59.125 296.1875 C-31.98517975 304.26344079 24.06124946 275.60382278 48.0625 263.125 C74.2744705 248.89217739 97.72650986 219.1116461 106.875 190.6875 C110.07138063 176.77384316 107.98064313 163.19523871 101.0625 150.75 C96.34691457 143.42655292 90.99670973 139.32565772 82.5 137.4375 C59.55144495 135.16833318 33.09668905 148.43231767 14.875 161.1875 Z " fill="#944902" transform="translate(1535.125,187.8125)"/>
<path d="M0 0 C1.010625 0.4125 2.02125 0.825 3.0625 1.25 C14.30884187 5.88791449 24.69864557 14.19553318 33 23 C33.598125 23.556875 34.19625 24.11375 34.8125 24.6875 C36 26 36 26 36 28 C36.99 28.33 37.98 28.66 39 29 C40.7890625 31.14453125 40.7890625 31.14453125 42.625 33.8125 C43.54152344 35.12154297 43.54152344 35.12154297 44.4765625 36.45703125 C45.83761539 38.72894261 46.55439311 40.4166844 47 43 C47.66 43 48.32 43 49 43 C62.68458934 70.43560873 67.55270191 99.04982305 57.8046875 128.74609375 C57.53914063 129.48988281 57.27359375 130.23367188 57 131 C56.71382812 131.81597656 56.42765625 132.63195312 56.1328125 133.47265625 C53.77529514 139.77560556 50.57953693 145.32046807 47 151 C46.5565625 151.7734375 46.113125 152.546875 45.65625 153.34375 C43.50115769 156.80003012 41.06691672 159.97903039 38.5625 163.1875 C38.08490234 163.81591797 37.60730469 164.44433594 37.11523438 165.09179688 C34.62878807 168.28086038 32.79767485 170.39595925 29 172 C28.690625 172.78375 28.38125 173.5675 28.0625 174.375 C26.71150918 177.71274201 24.80826506 178.79350602 22 181 C20.64721885 182.98689731 19.31431695 184.98745218 18 187 C16.34320753 188.67648271 14.67512981 190.34183967 13 192 C10.38339294 194.9069053 7.79263951 197.83504032 5.20703125 200.76953125 C4.47871094 201.50558594 3.75039062 202.24164063 3 203 C2.34 203 1.68 203 1 203 C0.6596875 204.11375 0.6596875 204.11375 0.3125 205.25 C-1.26473639 208.55468578 -3.1411818 209.7537857 -6 212 C-7.35278115 213.98689731 -8.68568305 215.98745218 -10 218 C-11.65679247 219.67648271 -13.32487019 221.34183967 -15 223 C-17.61660706 225.9069053 -20.20736049 228.83504032 -22.79296875 231.76953125 C-23.52128906 232.50558594 -24.24960938 233.24164063 -25 234 C-25.66 234 -26.32 234 -27 234 C-27.3403125 235.11375 -27.3403125 235.11375 -27.6875 236.25 C-29.25923147 239.54315164 -31.14893889 240.77478157 -34 243 C-35.01866229 244.65532623 -36.01810813 246.32260138 -37 248 C-38.6454378 249.68762851 -40.31288577 251.3540349 -42 253 C-42.66 253.825 -43.32 254.65 -44 255.5 C-49.42342342 262.27927928 -49.42342342 262.27927928 -53.1875 264 C-55.77833542 265.42942644 -56.00607523 267.2832723 -57 270 C-58.5 271.8125 -58.5 271.8125 -60 273 C-60.66 273 -61.32 273 -62 273 C-62.268125 273.763125 -62.53625 274.52625 -62.8125 275.3125 C-63.95134505 277.88988618 -64.81416671 279.26954864 -67 281 C-67.66 281 -68.32 281 -69 281 C-71.21208399 285.16060052 -72.63187672 289.27984145 -73 294 C-71.76763727 297.3859434 -71.76763727 297.3859434 -70 300 C-70 300.66 -70 301.32 -70 302 C-69.4225 302.268125 -68.845 302.53625 -68.25 302.8125 C-65.94449957 304.02929189 -63.97943808 305.30333879 -62 307 C-62 307.66 -62 308.32 -62 309 C-61.34 309 -60.68 309 -60 309 C-56.36858739 314.36930293 -54.04051646 319.043245 -54.37890625 325.63671875 C-55.52741493 330.00683039 -58.50688155 332.34877479 -62 335 C-62.7425 335.61875 -63.485 336.2375 -64.25 336.875 C-75.56671123 341.50456368 -86.34517875 337.54659651 -97.0546875 333.28515625 C-100.36712786 331.83980761 -103.13245376 330.20067502 -106 328 C-106.93199219 327.39091797 -106.93199219 327.39091797 -107.8828125 326.76953125 C-116.24216937 321.09597535 -121.03324542 313.83377289 -123 304 C-123.66 303.67 -124.32 303.34 -125 303 C-124.81509532 293.21686159 -123.113698 285.62791025 -116.5 278.1875 C-115.675 277.465625 -114.85 276.74375 -114 276 C-106.4734842 268.68255408 -99.6812534 260.7429788 -93.140625 252.54296875 C-90.1524143 248.9931053 -86.86103289 245.81798124 -83.5 242.625 C-81.1444668 240.15169014 -79.28042285 237.68178318 -77.40625 234.84375 C-75.49014769 232.33152698 -73.24321764 230.22351148 -71 228 C-68.38339294 225.0930947 -65.79263951 222.16495968 -63.20703125 219.23046875 C-62.47871094 218.49441406 -61.75039062 217.75835937 -61 217 C-60.34 217 -59.68 217 -59 217 C-58.690625 215.9171875 -58.690625 215.9171875 -58.375 214.8125 C-56.60487567 211.19179115 -54.10152725 209.53185898 -51 207 C-49.96986723 205.35178756 -48.96885372 203.68496298 -48 202 C-46.34336028 200.32336635 -44.67502073 198.65827052 -43 197 C-40.38339294 194.0930947 -37.79263951 191.16495968 -35.20703125 188.23046875 C-34.47871094 187.49441406 -33.75039062 186.75835937 -33 186 C-32.34 186 -31.68 186 -31 186 C-30.6596875 184.88625 -30.6596875 184.88625 -30.3125 183.75 C-28.73526361 180.44531422 -26.8588182 179.2462143 -24 177 C-22.64721885 175.01310269 -21.31431695 173.01254782 -20 171 C-18.34320753 169.32351729 -16.67512981 167.65816033 -15 166 C-12.38339294 163.0930947 -9.79263951 160.16495968 -7.20703125 157.23046875 C-6.47871094 156.49441406 -5.75039062 155.75835937 -5 155 C-4.34 155 -3.68 155 -3 155 C-2.6596875 153.88625 -2.6596875 153.88625 -2.3125 152.75 C-0.73526361 149.44531422 1.1411818 148.2462143 4 146 C6.5920703 142.46535868 8.76880012 138.74254265 10.875 134.90625 C12 133 12 133 13.95703125 130.2890625 C16.27282966 126.56075989 17.47983772 123.06104482 18.6875 118.875 C19.00557617 117.82119141 19.00557617 117.82119141 19.33007812 116.74609375 C19.90256241 114.83540487 20.45230732 112.91794239 21 111 C21.23332031 110.21882813 21.46664063 109.43765625 21.70703125 108.6328125 C22.18946317 106.8804722 22.18946317 106.8804722 21 105 C21.66 105 22.32 105 23 105 C22.26583205 87.37996927 20.03141363 71.89604494 10 57 C9.32710937 56.00033203 9.32710937 56.00033203 8.640625 54.98046875 C6.33326493 51.44262726 6.33326493 51.44262726 3 49 C3 48.01 3 47.02 3 46 C2.01 46 1.02 46 0 46 C-1.61328125 44.35546875 -1.61328125 44.35546875 -3.3125 42.1875 C-6.25817407 38.66509396 -8.70308763 36.77481163 -13 35 C-15.74049747 33.38380918 -18.45226027 31.72395951 -21.16796875 30.06640625 C-24.93098938 27.92459049 -28.73359224 26.5927094 -32.875 25.375 C-33.58333984 25.16262695 -34.29167969 24.95025391 -35.02148438 24.73144531 C-37.01107331 24.14224198 -39.00440906 23.56848013 -41 23 C-41.81726562 22.76023437 -42.63453125 22.52046875 -43.4765625 22.2734375 C-60.28527827 17.92523689 -80.22436989 19.52029768 -96.72265625 24.4140625 C-99 25 -99 25 -103 25 C-103 25.66 -103 26.32 -103 27 C-104.155 27.4125 -105.31 27.825 -106.5 28.25 C-111.89365742 30.27381482 -116.95501544 32.75522679 -121.875 35.75 C-124 37 -124 37 -126 37 C-126 37.66 -126 38.32 -126 39 C-130.38461538 42 -130.38461538 42 -133 42 C-133.226875 42.556875 -133.45375 43.11375 -133.6875 43.6875 C-135.84453833 47.4879961 -138.92376859 50.1786655 -142.375 52.8125 C-145.23288066 55.19406722 -147.50277794 57.77180999 -149.9140625 60.59375 C-152.38771116 63.44724733 -154.93939612 66.22489072 -157.5 69 C-160.55889526 72.32166039 -163.60117521 75.65312607 -166.5625 79.0625 C-169.46153459 82.39076058 -172.37304806 85.70737236 -175.3125 89 C-176.15425781 89.94875 -176.99601562 90.8975 -177.86328125 91.875 C-180 94 -180 94 -182 94 C-182.268125 94.763125 -182.53625 95.52625 -182.8125 96.3125 C-183.95134505 98.88988618 -184.81416671 100.26954864 -187 102 C-187.66 102 -188.32 102 -189 102 C-189.35578125 102.82757813 -189.35578125 102.82757813 -189.71875 103.671875 C-191.31245143 106.56774711 -193.28917273 108.79512037 -195.5 111.25 C-196.2940625 112.14203125 -197.088125 113.0340625 -197.90625 113.953125 C-200 116 -200 116 -202 116 C-202.226875 116.7425 -202.45375 117.485 -202.6875 118.25 C-204.25390846 121.53199867 -206.15519665 122.7952774 -209 125 C-209.33 125.66 -209.66 126.32 -210 127 C-211.3943874 129.78877479 -213.56195086 131.09713238 -216 133 C-216.8353125 134.11375 -216.8353125 134.11375 -217.6875 135.25 C-218.120625 135.8275 -218.55375 136.405 -219 137 C-219.66 137 -220.32 137 -221 137 C-221.226875 137.556875 -221.45375 138.11375 -221.6875 138.6875 C-222.99658117 140.99397634 -224.48368315 142.57008709 -226.38671875 144.39453125 C-231.24783296 149.23210495 -235.71010713 154.4959913 -240.1875 159.6875 C-243.69266456 163.7180288 -247.34758736 167.60355406 -251 171.5 C-255.7642601 176.58754474 -260.49396211 181.6805206 -265 187 C-266.10794922 188.25490234 -266.10794922 188.25490234 -267.23828125 189.53515625 C-274.99016804 198.55576428 -279.24341433 207.24904756 -281 219 C-281.226875 220.19625 -281.45375 221.3925 -281.6875 222.625 C-282.43054924 230.64993179 -280.2213102 236.77645593 -277 244 C-276.319375 245.546875 -276.319375 245.546875 -275.625 247.125 C-269.65126433 257.69391695 -261.72161814 264.92681263 -250.9375 270.375 C-249.9467749 270.87580078 -249.9467749 270.87580078 -248.93603516 271.38671875 C-233.49692814 278.82135438 -213.40022044 279.18872728 -197.17578125 274.1171875 C-194.73098802 273.16622658 -192.36854391 272.1263006 -190 271 C-188.95585938 270.5359375 -188.95585938 270.5359375 -187.890625 270.0625 C-182.74984632 267.67144015 -178.41616002 264.53108411 -174 261 C-172.4840625 259.824375 -172.4840625 259.824375 -170.9375 258.625 C-168.09756645 256.08718704 -165.71286826 253.46198372 -163.25 250.5703125 C-160.24570019 247.13831724 -157.12253497 243.82425228 -154 240.5 C-146.0522495 232.04104211 -146.0522495 232.04104211 -138.546875 223.19140625 C-137.40031784 221.76479921 -136.20522552 220.3774006 -135 219 C-134.34 219 -133.68 219 -133 219 C-132.76152344 218.44441406 -132.52304688 217.88882813 -132.27734375 217.31640625 C-130.70740153 214.46938564 -128.76079551 212.33071826 -126.5625 209.9375 C-125.38880859 208.65166016 -125.38880859 208.65166016 -124.19140625 207.33984375 C-121.74300544 204.72559761 -119.22273808 202.2167984 -116.65625 199.71875 C-113.77042103 196.76501917 -111.1322253 193.67784063 -108.5 190.5 C-105.16191134 186.4699826 -101.75880174 182.65335681 -98 179 C-93.82939546 174.91207264 -89.85506395 170.74289201 -86.03125 166.328125 C-83.46212711 163.38351492 -80.8669553 160.46463632 -78.25 157.5625 C-77.77788086 157.02987549 -77.30576172 156.49725098 -76.81933594 155.94848633 C-74.56585018 153.46264508 -73.23991995 152.07997332 -70 151 C-69.87625 150.4225 -69.7525 149.845 -69.625 149.25 C-69 147 -69 147 -66.6875 144.9375 C-62.53449433 140.39816822 -60 134.20979393 -60 128 C-59.979375 127.195625 -59.95875 126.39125 -59.9375 125.5625 C-59.99579626 123.17235316 -60.40707655 121.29757837 -61 119 C-61 117.68 -61 116.36 -61 115 C-61.66 115 -62.32 115 -63 115 C-63.97265625 113.4609375 -63.97265625 113.4609375 -65.0625 111.375 C-69.65738962 103.81480371 -77.3479296 100.15621141 -85.6171875 97.62890625 C-95.12927752 95.86049229 -105.72415924 96.73055249 -114 102 C-116.11553662 103.48505353 -118.16654094 105.00688638 -120.17578125 106.6328125 C-122 108 -122 108 -124.17578125 109.03515625 C-126.24255198 109.8709801 -126.24255198 109.8709801 -126.875 112.3125 C-128.13306396 115.31787502 -129.64747692 116.41823884 -132.17578125 118.37109375 C-134.49494687 120.4419547 -136.31594124 122.75366676 -138.25 125.1875 C-142.10577075 130.01695023 -146.24281818 134.34598261 -150.65625 138.6640625 C-153.95809891 141.95490525 -156.9752583 145.45634098 -160 149 C-161.43128201 150.67200952 -162.86886059 152.33864836 -164.3125 154 C-165.29669922 155.1446875 -165.29669922 155.1446875 -166.30078125 156.3125 C-168 158 -168 158 -170 158 C-170.3403125 159.0828125 -170.3403125 159.0828125 -170.6875 160.1875 C-172.26766076 163.57355877 -174.27191325 165.46677659 -177 168 C-177.721875 168.763125 -178.44375 169.52625 -179.1875 170.3125 C-181 172 -181 172 -183 172 C-183.37125 173.1446875 -183.37125 173.1446875 -183.75 174.3125 C-185.12130672 177.26080945 -186.2351079 178.35834532 -189 180 C-189.66 180 -190.32 180 -191 180 C-191.33 180.99 -191.66 181.98 -192 183 C-199.92124887 184.71270246 -207.25587211 185.43128799 -214.5 181.375 C-218.40819284 178.7075033 -220.73365051 176.70358382 -222 172 C-222.60063312 167.2261368 -222.66431597 163.38639854 -220.5625 159 C-209.8 146.4 -209.8 146.4 -207 145 C-206.3503125 143.88625 -206.3503125 143.88625 -205.6875 142.75 C-203.79120987 139.65974942 -201.57646894 137.55055617 -199 135 C-196.38339294 132.0930947 -193.79263951 129.16495968 -191.20703125 126.23046875 C-190.47871094 125.49441406 -189.75039062 124.75835937 -189 124 C-188.34 124 -187.68 124 -187 124 C-186.79375 123.278125 -186.5875 122.55625 -186.375 121.8125 C-184.93074028 118.85833239 -183.42587128 117.62909068 -180.85546875 115.66796875 C-177.43861185 112.59639423 -174.7642558 108.84956062 -171.953125 105.23046875 C-171.30859375 104.49441406 -170.6640625 103.75835937 -170 103 C-169.34 103 -168.68 103 -168 103 C-167.73123047 102.4112207 -167.46246094 101.82244141 -167.18554688 101.21582031 C-165.2253919 97.55223576 -162.3257572 94.76577558 -159.5 91.75 C-158.90574219 91.1003125 -158.31148437 90.450625 -157.69921875 89.78125 C-157.12816406 89.16765625 -156.55710937 88.5540625 -155.96875 87.921875 C-155.18661133 87.08027832 -155.18661133 87.08027832 -154.38867188 86.22167969 C-153 85 -153 85 -151 85 C-150.7525 84.401875 -150.505 83.80375 -150.25 83.1875 C-148.81927475 80.68373081 -147.4308418 79.51927612 -145 78 C-144.34 78 -143.68 78 -143 78 C-143 77.34 -143 76.68 -143 76 C-141.06629769 74.99267601 -139.12789694 73.99436712 -137.1875 73 C-136.10855469 72.443125 -135.02960938 71.88625 -133.91796875 71.3125 C-131 70 -131 70 -128 70 C-128 69.34 -128 68.68 -128 68 C-120.29202525 64.62776105 -112.24649105 63.35638551 -104 62 C-103.14535156 61.84144531 -102.29070312 61.68289063 -101.41015625 61.51953125 C-82.0609989 58.62905959 -60.14139502 64.96333221 -44.53125 76.453125 C-41.90392197 78.55227884 -39.35304486 80.5971025 -37 83 C-37 83.66 -37 84.32 -37 85 C-36.01 85.33 -35.02 85.66 -34 86 C-32.96210419 87.64333504 -31.96432076 89.31243867 -31 91 C-30.525625 91.45375 -30.05125 91.9075 -29.5625 92.375 C-21.3103592 100.95722644 -18.89946228 115.52433727 -19 127 C-19.90177918 144.63266103 -26.94619863 160.00461495 -40 172 C-44.21618048 176.06712359 -47.87434131 180.40657311 -51.51367188 184.97851562 C-52.6333702 186.35463341 -53.81237816 187.68205506 -55 189 C-55.66 189 -56.32 189 -57 189 C-57.25394531 189.58265625 -57.50789063 190.1653125 -57.76953125 190.765625 C-59.13320333 193.24188033 -60.64225203 194.80520626 -62.6875 196.75 C-67.32824921 201.27326188 -71.5751704 206.06233287 -75.69921875 211.05859375 C-76.23160156 211.69925781 -76.76398438 212.33992187 -77.3125 213 C-77.78300781 213.5775 -78.25351563 214.155 -78.73828125 214.75 C-80 216 -80 216 -82 216 C-82.2371875 216.55171875 -82.474375 217.1034375 -82.71875 217.671875 C-84.31245143 220.56774711 -86.28917273 222.79512037 -88.5 225.25 C-89.2940625 226.14203125 -90.088125 227.0340625 -90.90625 227.953125 C-93 230 -93 230 -95 230 C-95.3403125 231.11375 -95.3403125 231.11375 -95.6875 232.25 C-97 235 -97 235 -99.29296875 236.81640625 C-103.15064249 239.92815174 -105.88775999 243.73764299 -108.9140625 247.63671875 C-111 250 -111 250 -114 251 C-114.28875 251.5775 -114.5775 252.155 -114.875 252.75 C-116.38903541 255.77807082 -118.58674715 257.62408299 -121 260 C-122.87813124 261.97817374 -124.72118655 263.98757975 -126.5625 266 C-127.03107422 266.50789063 -127.49964844 267.01578125 -127.98242188 267.5390625 C-130.16553018 269.9206352 -132.24225327 272.31445927 -134.21484375 274.875 C-134.80394531 275.57625 -135.39304687 276.2775 -136 277 C-136.66 277 -137.32 277 -138 277 C-138.268125 277.639375 -138.53625 278.27875 -138.8125 278.9375 C-140 281 -140 281 -143 282 C-143 282.66 -143 283.32 -143 284 C-143.66 284 -144.32 284 -145 284 C-145.33 284.99 -145.66 285.98 -146 287 C-148.328125 288.68359375 -148.328125 288.68359375 -151.25 290.4375 C-154.13339365 292.17922563 -156.8333224 293.86248429 -159.43359375 296.0078125 C-178.82326604 311.05915629 -210.32303329 315.22624246 -234 313 C-242.43849271 311.82628238 -251.15974787 310.44099955 -259 307 C-260.423125 306.5359375 -260.423125 306.5359375 -261.875 306.0625 C-265.3479714 304.88168972 -268.65233923 303.50067552 -272 302 C-272.61746094 301.72414063 -273.23492188 301.44828125 -273.87109375 301.1640625 C-281.93721242 297.36633258 -289.44718106 292.03549112 -296 286 C-296 285.34 -296 284.68 -296 284 C-297.32 283.34 -298.64 282.68 -300 282 C-300 281.34 -300 280.68 -300 280 C-300.99 279.67 -301.98 279.34 -303 279 C-304.7890625 276.85546875 -304.7890625 276.85546875 -306.625 274.1875 C-307.54152344 272.87845703 -307.54152344 272.87845703 -308.4765625 271.54296875 C-309.83761539 269.27105739 -310.55439311 267.5833156 -311 265 C-311.66 265 -312.32 265 -313 265 C-323.32643597 245.41538005 -325.70315891 221.86339147 -319.1875 200.6875 C-315.36457747 190.14977628 -310.14978664 178.8363333 -302 171 C-300.84149643 169.71968509 -299.69542935 168.42799958 -298.5625 167.125 C-297.96179688 166.43664062 -297.36109375 165.74828125 -296.7421875 165.0390625 C-295.18712316 163.21900962 -293.68384404 161.36821653 -292.1875 159.5 C-291.465625 158.675 -290.74375 157.85 -290 157 C-289.34 157 -288.68 157 -288 157 C-287.76152344 156.44441406 -287.52304687 155.88882813 -287.27734375 155.31640625 C-285.70740153 152.46938564 -283.76079551 150.33071826 -281.5625 147.9375 C-280.78003906 147.08027344 -279.99757813 146.22304688 -279.19140625 145.33984375 C-276.74426558 142.72694311 -274.22537808 140.21935797 -271.66015625 137.72265625 C-268.75297188 134.74716799 -266.09186749 131.63673072 -263.4375 128.4375 C-260.41911587 124.80464428 -257.40732646 121.28140352 -254 118 C-248.51269034 112.66947062 -243.43397857 106.95770678 -238.42163086 101.1809082 C-233.54026991 95.5570459 -228.46785228 90.13672148 -223.34179688 84.73632812 C-220.6577353 81.89357586 -218.07569113 79.09699114 -215.66796875 76.01171875 C-215.11753906 75.34785156 -214.56710937 74.68398438 -214 74 C-213.34 74 -212.68 74 -212 74 C-211.76152344 73.44441406 -211.52304688 72.88882813 -211.27734375 72.31640625 C-209.70740153 69.46938564 -207.76079551 67.33071826 -205.5625 64.9375 C-204.78003906 64.08027344 -203.99757813 63.22304688 -203.19140625 62.33984375 C-200.74426558 59.72694311 -198.22537808 57.21935797 -195.66015625 54.72265625 C-192.75297188 51.74716799 -190.09186749 48.63673072 -187.4375 45.4375 C-184.41905979 41.80457678 -181.40693386 38.28184125 -178 35 C-175.24317159 32.31571971 -172.66849604 29.61137495 -170.25 26.625 C-166.72447419 22.44761916 -162.5635012 19.00278379 -158 16 C-157.34 16 -156.68 16 -156 16 C-155.67 15.01 -155.34 14.02 -155 13 C-150.66666667 10 -150.66666667 10 -148 10 C-148 9.34 -148 8.68 -148 8 C-145.35261084 6.5393715 -144.10551666 6 -141 6 C-141 5.34 -141 4.68 -141 4 C-139.08850332 2.9901527 -137.17058431 1.99245505 -135.25 1 C-134.18265625 0.443125 -133.1153125 -0.11375 -132.015625 -0.6875 C-129 -2 -129 -2 -125 -2 C-125 -2.66 -125 -3.32 -125 -4 C-88.66619083 -16.60061395 -33.58295902 -25.42515521 0 0 Z " fill="#944902" transform="translate(1304,246)"/>
<path d="M0 0 C2.49280499 2.20900873 4.93200626 4.46112356 7.3515625 6.75 C8.17011719 7.51570313 8.98867188 8.28140625 9.83203125 9.0703125 C16.46856594 15.45784181 20.47270682 19.62852242 20.9140625 29.0625 C20.67268902 36.29538121 18.65905816 41.89731275 13.9296875 47.40625 C8.74373934 52.20185797 2.39987425 53.21328359 -4.41015625 52.984375 C-11.67951167 52.22318595 -16.64191262 48.51032406 -22.45043945 44.3659668 C-46.71874502 27.13938577 -78.87033004 11.31914584 -109.24609375 15.2109375 C-127.79043114 18.76509461 -144.29424056 28.11720335 -155.62109375 43.4140625 C-162.43972669 53.69268116 -167.02510007 64.11040442 -165.0859375 76.625 C-160.82437878 94.36304635 -148.03848769 106.62313675 -133.6484375 116.75 C-132.12486696 117.84096006 -130.60143815 118.93211807 -129.078125 120.0234375 C-117.48668364 128.27210207 -105.63624302 136.09238178 -93.6484375 143.75 C-92.76929688 144.31187012 -91.89015625 144.87374023 -90.984375 145.45263672 C-84.54640553 149.56333588 -78.09851339 153.65833184 -71.6484375 157.75 C-60.1965592 165.01460999 -48.75940379 172.29728389 -37.40454102 179.71289062 C-32.76693765 182.73743439 -28.11262753 185.73294579 -23.4375 188.69921875 C-6.38012433 199.52342198 10.16763763 210.39239336 25.3515625 223.75 C26.47111328 224.70326172 26.47111328 224.70326172 27.61328125 225.67578125 C29.55655112 227.33653251 31.46155886 229.02895718 33.3515625 230.75 C34.04378906 231.37648438 34.73601562 232.00296875 35.44921875 232.6484375 C57.95806351 254.00603623 73.20461107 286.64467712 74.3515625 317.75 C74.44630859 319.58691406 74.44630859 319.58691406 74.54296875 321.4609375 C75.63781959 351.66384215 62.76152585 379.63849062 43.3125 402.10546875 C32.01441686 414.07969201 17.94993378 423.33083835 3.3515625 430.75 C2.25328125 431.31332031 1.155 431.87664062 0.0234375 432.45703125 C-8.27268229 436.49270529 -16.80097935 439.23243061 -25.6484375 441.75 C-27.21078125 442.19859375 -27.21078125 442.19859375 -28.8046875 442.65625 C-42.2482713 446.27011661 -55.6820598 447.13309954 -69.5234375 447.0625 C-70.26956299 447.06067719 -71.01568848 447.05885437 -71.78442383 447.05697632 C-82.70516663 447.01210176 -93.03175419 446.51033766 -103.6484375 443.75 C-105.09350577 443.41690743 -106.53883031 443.08492517 -107.984375 442.75390625 C-130.46167372 437.3295241 -149.25936556 425.88004925 -165.6484375 409.75 C-166.77765625 408.65751953 -166.77765625 408.65751953 -167.9296875 407.54296875 C-176.05765739 399.11801534 -182.82998176 386.58502775 -183.0234375 374.6875 C-182.89371716 369.9310874 -181.96729128 367.31776781 -178.6484375 363.75 C-170.06090584 356.82457124 -160.71367306 355.42465092 -149.9453125 355.3515625 C-143.6583719 356.11135864 -139.56336063 359.45597198 -134.7734375 363.375 C-110.67595101 382.40062279 -80.50763491 390.87482335 -49.97119141 387.44970703 C-30.67134838 384.51642982 -11.37050794 377.12832691 1.3515625 361.75 C11.60750943 347.36977547 16.93971276 331.50109723 15.3515625 313.75 C12.79369042 299.36771327 6.84312735 286.86207593 -2.6484375 275.75 C-3.3909375 274.76 -4.1334375 273.77 -4.8984375 272.75 C-13.46048541 262.71079367 -25.96011853 255.32106162 -36.6484375 247.75 C-37.53112305 247.1214209 -38.41380859 246.4928418 -39.32324219 245.84521484 C-58.10767246 232.4910231 -77.49931332 220.31492096 -97.37060547 208.65234375 C-126.47406372 191.52593804 -156.54861205 173.29271307 -182.6484375 151.75 C-183.380625 151.151875 -184.1128125 150.55375 -184.8671875 149.9375 C-203.47421768 134.13426888 -216.36161758 110.23717667 -219.43359375 85.9375 C-221.23974164 59.14083306 -215.95469263 35.54485764 -199.6484375 13.75 C-199.00003906 12.87988281 -198.35164063 12.00976562 -197.68359375 11.11328125 C-177.23134359 -15.33289568 -147.21045339 -31.60131364 -114.35961914 -36.59814453 C-72.61087081 -41.70650621 -31.7208456 -26.94868299 0 0 Z " fill="#944902" transform="translate(304.6484375,116.25)"/>
<path d="M0 0 C1.05509766 -0.020625 2.11019531 -0.04125 3.19726562 -0.0625 C10.95295794 -0.10115766 16.5376847 0.84267501 23.125 5.1875 C26.0070358 8.0695358 26.13825303 10.11424173 26.3125 14.1328125 C25.98787592 22.55274958 24.15385314 28.18130804 18.1875 34.25 C11.91340836 39.67038155 4.6945431 43.44642517 -2.5625 47.375 C-4.9883125 48.70487014 -7.41049386 50.04127022 -9.83203125 51.37890625 C-10.4315712 51.7097673 -11.03111115 52.04062836 -11.64881897 52.3815155 C-34.42302016 64.97551956 -55.85708229 79.19700171 -75.0625 96.8125 C-75.62952637 97.33078369 -76.19655273 97.84906738 -76.78076172 98.38305664 C-121.78795864 140.3218797 -138.81515649 203.31605867 -143.8125 262.5234375 C-143.8964502 263.51233475 -143.98040039 264.50123199 -144.06689453 265.52009583 C-144.48199097 270.46233775 -144.8764972 275.40517801 -145.2421875 280.35131836 C-146.44000416 295.78158233 -148.09954483 314.55591264 -159.4375 326.3125 C-160.22125 326.951875 -161.005 327.59125 -161.8125 328.25 C-162.864375 329.11625 -162.864375 329.11625 -163.9375 330 C-169.38973475 333.63482316 -176.5533877 332.75017324 -182.8125 332.25 C-185.87713915 331.36476671 -188.22257817 330.09036798 -190.8125 328.25 C-191.823125 327.569375 -192.83375 326.88875 -193.875 326.1875 C-198.20396479 322.32653141 -200.95726779 317.23107103 -203.8125 312.25 C-204.69808594 310.72052734 -204.69808594 310.72052734 -205.6015625 309.16015625 C-209.18632014 302.51966909 -211.67226969 295.97529963 -213.6953125 288.73046875 C-213.95205246 287.81924759 -214.20879242 286.90802643 -214.47331238 285.9691925 C-217.40417601 275.37778794 -219.79853404 264.67504329 -222.125 253.9375 C-222.35861237 252.86652069 -222.59222473 251.79554138 -222.83291626 250.69210815 C-235.66024328 191.76632085 -244.51874703 132.28755015 -252.37963867 72.52389526 C-252.81305903 69.24577187 -253.2534823 65.9686499 -253.6953125 62.69165039 C-253.9701294 60.63428767 -254.24487261 58.5769151 -254.51953125 56.51953125 C-254.64532059 55.59674377 -254.77110992 54.6739563 -254.90071106 53.72320557 C-257.49620433 34.13775859 -257.49620433 34.13775859 -252.8125 26.25 C-246.85666543 21.26371989 -240.05876031 19.78907139 -232.42578125 20 C-221.69945772 21.02613558 -210.49164702 23.34595332 -202.6484375 31.1796875 C-198.72105929 35.99501633 -198.51105599 41.10539736 -197.9375 47.125 C-197.71127057 49.08552955 -197.48473706 51.0460291 -197.25291443 53.00590515 C-197.07757852 54.49265073 -196.90514909 55.97974123 -196.73524475 57.46711731 C-195.36265972 69.40030318 -193.66278116 81.29201696 -192 93.1875 C-191.82913879 94.41651031 -191.65827759 95.64552063 -191.48223877 96.91177368 C-188.47613451 118.46601153 -184.93062687 139.88136726 -180.8125 161.25 C-180.66216309 160.63181396 -180.51182617 160.01362793 -180.35693359 159.37670898 C-174.35900121 134.95202212 -165.61988752 112.77047404 -150.8125 92.25 C-149.76835938 90.7959375 -149.76835938 90.7959375 -148.703125 89.3125 C-135.56419068 71.42118518 -120.59832588 54.75031539 -102.63720703 41.58740234 C-101.38740029 40.67136791 -100.14384802 39.74675591 -98.90576172 38.81494141 C-74.25867189 20.2823314 -46.85532565 7.97445516 -16.8125 1.25 C-16.00216309 1.06663086 -15.19182617 0.88326172 -14.35693359 0.69433594 C-9.60780254 -0.13500762 -4.80905807 0.0232462 0 0 Z " fill="#944902" transform="translate(1003.8125,193.75)"/>
<path d="M0 0 C9.9585134 9.48126835 18.79314109 22.11872867 19.890625 36.23828125 C20.02498985 43.97545725 19.48216229 49.70035342 14 55.4375 C7.52334261 59.7145379 1.49016431 61.65314891 -6.3125 60.625 C-13.64986829 58.26211869 -18.15322996 54.2945995 -22.625 48.25 C-29.40076033 39.31966676 -38.32850599 33.89531372 -49.3125 31.625 C-67.5215389 30.18303191 -84.40259222 36.0618558 -98.3125 47.625 C-99.15296875 48.30304688 -99.9934375 48.98109375 -100.859375 49.6796875 C-122.53823765 68.05959279 -135.71000189 97.78139313 -139.3125 125.625 C-140.53206715 146.27718397 -138.33901501 163.35769117 -125 180 C-116.25406973 189.36786308 -103.0412709 193.96770683 -90.45776367 194.81787109 C-47.014002 195.99347104 -8.2169685 180.81516195 29.02026367 159.27563477 C39.10548057 153.46944812 50.97178946 149.94374245 62.6875 151.625 C68.48076585 153.26317068 71.41675446 157.34250129 74.4609375 162.33203125 C77.69725732 168.38209409 78.63899638 174.05044001 76.6875 180.625 C73.18946443 187.62107114 68.61882304 193.55681725 62.6875 198.625 C61.8315625 199.35976563 60.975625 200.09453125 60.09375 200.8515625 C17.18756801 235.68518963 -47.39085327 258.26145956 -102.69384766 252.5402832 C-124.54122384 250.13993851 -145.57495193 243.25150597 -162.3125 228.625 C-162.93511719 228.13386719 -163.55773437 227.64273438 -164.19921875 227.13671875 C-184.65704396 210.81643123 -192.66750979 184.89549152 -195.62939453 159.95678711 C-200.28684469 113.36978792 -188.67238744 65.0612453 -158.82861328 28.44482422 C-137.69749363 3.08067513 -109.67822862 -16.41444627 -76.24609375 -20.09375 C-49.46198008 -22.00880083 -21.00095295 -18.10426978 0 0 Z " fill="#944902" transform="translate(630.3125,251.375)"/>
<path d="M0 0 C6.09608523 4.95306925 10.50123802 10.93022964 14.8125 17.4375 C15.19768799 18.00645996 15.58287598 18.57541992 15.97973633 19.16162109 C21.78569087 28.18624766 21.9729502 38.09763036 20 48.4375 C16.18081113 63.22277809 10.32616505 77.47369826 3.6640625 91.1875 C-1.36730361 101.69888907 -4.87943161 113.06346714 -7.375 124.4375 C-8.58193543 129.52337244 -10.47840626 134.10337654 -12.5625 138.875 C-20.69649782 157.63034584 -26.87093687 176.91651013 -31.59130859 196.79248047 C-33.7283097 205.693466 -36.50548299 213.98138013 -40 222.4375 C-42.50996182 228.71677732 -44.37325588 234.89279921 -45.8125 241.5 C-47.23075525 247.9012947 -49.09820114 253.99892563 -51.4375 260.125 C-51.85189331 261.23790405 -51.85189331 261.23790405 -52.2746582 262.37329102 C-54.35621473 267.63211813 -56.93062353 273.02724595 -62.3125 275.5 C-70.06560762 275.31969517 -75.03604992 271.20567165 -80.125 265.875 C-80.7339209 265.24513184 -81.3428418 264.61526367 -81.97021484 263.96630859 C-93.42535038 251.85024046 -97.64042092 238.01436117 -97.40673828 221.515625 C-97.15957766 215.16257319 -95.80206337 209.49485587 -94 203.4375 C-93.26725215 200.58930496 -92.57253046 197.73199518 -91.875 194.875 C-91.00848925 191.359407 -90.14596406 187.87539217 -89 184.4375 C-88.88211985 182.3396999 -88.79094038 180.240356 -88.71484375 178.140625 C-88.19199192 170.31691509 -86.17022444 163.54537444 -83.5625 156.1875 C-83.10671365 154.86377154 -82.65190011 153.53970778 -82.19799805 152.21533203 C-79.05915607 143.13015465 -75.61570556 134.17132839 -72.09936523 125.2265625 C-60.84365078 96.26297792 -51.58964679 66.48403688 -42.36669922 36.82373047 C-40.87051395 32.0159994 -39.3613273 27.21240795 -37.84765625 22.41015625 C-37.60760361 21.64666367 -37.36755096 20.88317108 -37.120224 20.09654236 C-36.65428163 18.62005607 -36.18412422 17.14489251 -35.70950317 15.6711731 C-35.21248483 14.10644928 -34.73480132 12.53551335 -34.271698 10.9604187 C-33.90408859 9.75495895 -33.90408859 9.75495895 -33.52905273 8.52514648 C-33.20758522 7.43495461 -33.20758522 7.43495461 -32.87962341 6.32273865 C-31.50589308 3.37851334 -29.51477537 2.39494214 -26.578125 1.21484375 C-8.26761861 -4.30605136 -8.26761861 -4.30605136 0 0 Z " fill="#944902" transform="translate(1857,298.5625)"/>
<path d="M0 0 C12.34086713 9.53789416 19.31601956 20.60509335 22 36 C23.45617913 57.47864215 5.76674605 76.11877946 -7.40478516 91.24316406 C-13.53834718 97.99815524 -21.3556535 103.43327633 -30.65625 104.2265625 C-40.19451107 103.87024815 -48.82851928 99.70759285 -55.4375 92.875 C-63.24830213 83.20062475 -68.15364463 68.45936199 -67 56 C-65 54 -65 54 -61.8125 52.8125 C-50.81216767 48.22522448 -44.64399579 35.2500943 -40 25 C-38.96807352 21.90422056 -38.79654711 19.43464165 -38.625 16.1875 C-38.14815296 10.19801221 -37.2230202 6.2230202 -32.875 1.875 C-22.11778479 -5.14057514 -11.17224661 -7.51738526 0 0 Z " fill="#944902" transform="translate(1920,76)"/>
</svg>
