<?xml version="1.0" encoding="utf-8"?>
<svg xmlns="http://www.w3.org/2000/svg" version="1.1" viewBox="0 44.064 611.184 188.496" style="max-height: 500px" width="611.184" height="188.496" xmlns:bx="https://boxy-svg.com">
  <defs>
    <linearGradient id="gradient-1" bx:pinned="true"/>
    <linearGradient id="gradient-2" bx:pinned="true"/>
    <filter id="gaussian-blur-filter-0" bx:preset="gaussian-blur 1 5" color-interpolation-filters="sRGB" x="-50%" y="-50%" width="200%" height="200%">
      <feGaussianBlur stdDeviation="5 5" edgeMode="none"/>
    </filter>
  </defs>
  <path d="M 0.851 6.81 C 202.811 6.81 404.771 6.81 612.851 6.81 C 612.851 74.79 612.851 142.77 612.851 212.81 C 604.415 213.864 604.415 213.864 600.851 211.81 C 598.586 211.859 598.586 211.859 596.226 212.31 C 590.852 212.953 585.932 212.85 580.851 210.81 C 579.651 209.326 578.452 207.837 577.378 206.259 C 574.525 203.552 570.592 203.298 566.843 202.529 C 564.1 201.87 562.103 201.056 559.664 199.685 C 555.483 197.394 551.536 197.148 546.851 196.81 C 545.179 196.503 543.509 196.184 541.851 195.81 C 541.851 195.15 541.851 194.49 541.851 193.81 C 539.541 193.15 537.231 192.49 534.851 191.81 C 534.521 192.8 534.191 193.79 533.851 194.81 C 529.632 194.33 527.054 193.644 523.851 190.81 C 523.191 191.614 522.531 192.419 521.851 193.247 C 515.751 198.458 506.304 196.869 498.654 196.595 C 493.678 196.507 491.078 196.974 486.851 199.81 C 482.996 199.803 479.721 198.5 476.726 196.122 C 474.851 193.81 474.851 193.81 473.738 192.064 C 471.4 188.747 469.901 187.062 465.855 186.091 C 463.586 185.818 461.313 185.57 459.039 185.345 C 455.073 184.679 452.827 183.099 449.632 180.79 C 446.592 179.117 444.051 179.914 440.851 180.81 C 440.191 181.14 439.531 181.47 438.851 181.81 C 433.881 182.094 429.012 182.003 424.101 181.185 C 417.893 180.25 408.459 181.006 402.851 183.81 C 402.583 184.387 402.315 184.965 402.039 185.56 C 400.226 188.995 397.728 192.108 394.011 193.497 C 391.404 193.874 389.264 193.531 386.664 193.122 C 381.441 192.548 378.221 193.45 373.628 195.9 C 371.851 196.81 371.851 196.81 369.851 196.81 C 369.851 197.47 369.851 198.13 369.851 198.81 C 366.209 201.525 363.375 202.22 358.886 202.435 C 357.756 202.502 356.626 202.569 355.462 202.638 C 354.291 202.695 353.12 202.751 351.914 202.81 C 341.908 203.1 341.908 203.1 332.851 206.81 C 332.191 206.81 331.531 206.81 330.851 206.81 C 330.521 207.8 330.191 208.79 329.851 209.81 C 325.744 214.034 320.999 217.936 315.851 220.81 C 314.861 220.48 313.871 220.15 312.851 219.81 C 304.793 218.668 299.015 220.262 292.014 224.093 C 285.273 227.772 278.572 230.044 270.851 229.81 C 270.851 229.15 270.851 228.49 270.851 227.81 C 269.82 227.736 269.82 227.736 268.769 227.661 C 267.868 227.587 266.967 227.512 266.039 227.435 C 265.145 227.365 264.252 227.296 263.331 227.224 C 260.851 226.81 260.851 226.81 257.851 224.81 C 254.104 226.443 254.104 226.443 250.851 228.81 C 248.518 228.851 246.184 228.852 243.851 228.81 C 243.851 228.15 243.851 227.49 243.851 226.81 C 242.945 226.819 242.039 226.828 241.105 226.837 C 233.123 226.643 228.687 225.789 222.749 220.404 C 220.209 218.27 218.139 217.81 214.851 217.81 C 213.861 218.14 212.871 218.47 211.851 218.81 C 209.563 218.981 207.27 219.076 204.976 219.122 C 203.762 219.16 202.547 219.197 201.296 219.236 C 197.237 218.734 195.8 217.556 192.851 214.81 C 182.951 208.032 169.636 208.564 158.072 208.239 C 152.063 208.022 152.063 208.022 149.851 205.81 C 147.881 205.497 147.881 205.497 145.664 205.435 C 142.185 205.15 140.016 204.538 137.101 202.622 C 134.078 200.45 134.078 200.45 131.351 201.435 C 130.526 201.889 129.701 202.342 128.851 202.81 C 123.067 205.257 123.067 205.257 119.578 203.974 C 118.027 203.206 116.479 202.434 114.933 201.657 C 112.763 200.568 112.763 200.568 109.914 201.247 C 107.379 203.167 106.725 204.791 105.851 207.81 C 104.414 207.864 102.976 207.903 101.539 207.935 C 100.738 207.958 99.937 207.981 99.113 208.005 C 96.851 207.81 96.851 207.81 93.851 205.81 C 91.131 206.613 91.131 206.613 88.226 208.06 C 80.206 211.61 71.574 214.717 62.851 211.81 C 59.54 211.615 56.235 211.466 52.919 211.38 C 48.179 211.167 45.078 210.129 40.851 207.81 C 36.692 207.481 36.692 207.481 32.851 208.81 C 29.057 208.925 25.267 208.712 21.476 208.56 C 20.422 208.533 19.367 208.506 18.281 208.478 C 17.265 208.438 16.249 208.398 15.203 208.357 C 14.273 208.324 13.343 208.292 12.385 208.258 C 9.851 207.81 9.851 207.81 7.829 206.276 C 5.592 204.314 5.592 204.314 0.851 204.81 C 0.851 139.47 0.851 74.13 0.851 6.81 Z" style="fill: rgb(101, 95, 73); opacity: 0.13; filter: url(&quot;#gaussian-blur-filter-0&quot;);"/>
  <path fill="#FBF5DE" d="M -3.405 -2.554 C 200.803 -2.554 405.009 -2.554 615.405 -2.554 C 615.405 65.426 615.405 133.406 615.405 203.446 C 606.875 204.501 606.875 204.501 603.271 202.446 C 600.982 202.495 600.982 202.495 598.595 202.946 C 593.162 203.589 588.186 203.486 583.049 201.446 C 581.835 199.962 580.624 198.473 579.538 196.896 C 576.653 194.189 572.676 193.935 568.885 193.165 C 566.112 192.506 564.093 191.693 561.626 190.321 C 557.399 188.031 553.408 187.785 548.671 187.446 C 546.98 187.139 545.291 186.821 543.615 186.446 C 543.615 185.786 543.615 185.126 543.615 184.446 C 541.279 183.786 538.943 183.126 536.537 182.446 C 536.203 183.436 535.869 184.426 535.526 185.446 C 531.26 184.967 528.654 184.28 525.415 181.446 C 524.747 182.251 524.079 183.055 523.393 183.884 C 517.225 189.094 507.672 187.505 499.938 187.231 C 494.906 187.144 492.277 187.61 488.003 190.446 C 484.105 190.439 480.793 189.137 477.766 186.759 C 475.869 184.446 475.869 184.446 474.744 182.7 C 472.38 179.384 470.865 177.698 466.773 176.728 C 464.479 176.455 462.181 176.206 459.881 175.981 C 455.871 175.316 453.601 173.735 450.37 171.427 C 447.296 169.753 444.727 170.55 441.491 171.446 C 440.823 171.776 440.157 172.106 439.469 172.446 C 434.443 172.731 429.52 172.64 424.555 171.821 C 418.277 170.886 408.739 171.642 403.069 174.446 C 402.797 175.024 402.527 175.601 402.247 176.196 C 400.414 179.631 397.888 182.745 394.129 184.134 C 391.494 184.511 389.33 184.168 386.702 183.759 C 381.42 183.185 378.165 184.086 373.52 186.536 C 371.723 187.446 371.723 187.446 369.701 187.446 C 369.701 188.106 369.701 188.766 369.701 189.446 C 366.019 192.162 363.153 192.857 358.614 193.071 C 357.472 193.138 356.328 193.205 355.152 193.274 C 353.967 193.331 352.784 193.388 351.564 193.446 C 341.448 193.737 341.448 193.737 332.289 197.446 C 331.622 197.446 330.955 197.446 330.267 197.446 C 329.933 198.436 329.599 199.426 329.255 200.446 C 325.104 204.671 320.305 208.573 315.101 211.446 C 314.099 211.116 313.099 210.786 312.067 210.446 C 303.919 209.304 298.077 210.899 290.998 214.73 C 284.181 218.409 277.406 220.68 269.599 220.446 C 269.599 219.786 269.599 219.126 269.599 218.446 C 268.557 218.373 268.557 218.373 267.495 218.298 C 266.584 218.223 265.673 218.148 264.733 218.071 C 263.83 218.002 262.927 217.932 261.995 217.86 C 259.489 217.446 259.489 217.446 256.455 215.446 C 252.666 217.079 252.666 217.079 249.377 219.446 C 247.018 219.487 244.658 219.489 242.299 219.446 C 242.299 218.786 242.299 218.126 242.299 217.446 C 241.383 217.455 240.467 217.464 239.523 217.474 C 231.451 217.279 226.967 216.425 220.963 211.04 C 218.394 208.907 216.301 208.446 212.977 208.446 C 211.975 208.776 210.975 209.106 209.943 209.446 C 207.629 209.618 205.311 209.713 202.992 209.759 C 201.764 209.796 200.535 209.834 199.27 209.872 C 195.167 209.37 193.714 208.192 190.731 205.446 C 180.721 198.669 167.258 199.2 155.566 198.875 C 149.489 198.658 149.489 198.658 147.253 196.446 C 145.261 196.134 145.261 196.134 143.02 196.071 C 139.501 195.787 137.308 195.175 134.361 193.259 C 131.304 191.087 131.304 191.087 128.547 192.071 C 127.713 192.525 126.879 192.979 126.019 193.446 C 120.171 195.893 120.171 195.893 116.644 194.61 C 115.075 193.843 113.509 193.071 111.947 192.294 C 109.753 191.204 109.753 191.204 106.872 191.884 C 104.309 193.804 103.647 195.428 102.763 198.446 C 101.31 198.501 99.856 198.539 98.403 198.571 C 97.594 198.595 96.783 198.618 95.951 198.642 C 93.663 198.446 93.663 198.446 90.629 196.446 C 87.879 197.25 87.879 197.25 84.942 198.696 C 76.834 202.247 68.105 205.354 59.285 202.446 C 55.938 202.251 52.595 202.102 49.243 202.017 C 44.449 201.804 41.314 200.766 37.041 198.446 C 32.834 198.117 32.834 198.117 28.951 199.446 C 25.115 199.562 21.283 199.348 17.45 199.196 C 16.384 199.169 15.317 199.142 14.219 199.114 C 13.191 199.074 12.165 199.034 11.107 198.993 C 10.167 198.961 9.227 198.928 8.257 198.895 C 5.695 198.446 5.695 198.446 3.651 196.912 C 1.388 194.95 1.388 194.95 -3.405 195.446 C -3.405 130.106 -3.405 64.766 -3.405 -2.554 Z" style=""/>
  <path transform="translate(412.5,162)" fill="#FAFAF9" d="M0 0 C3.34624314 1.33849726 5.17863335 3.28068478 7.5 6 C7.5 6.66 7.5 7.32 7.5 8 C9.29158489 8.02696365 11.08328473 8.04637917 12.875 8.0625 C14.37160156 8.07990234 14.37160156 8.07990234 15.8984375 8.09765625 C18.48432453 8.18006602 18.48432453 8.18006602 20.5 7 C24.54575786 6.67787533 28.60039794 6.57416046 32.65649414 6.44238281 C34.66255312 6.37582766 36.66820549 6.29736333 38.67382812 6.21875 C39.95064453 6.17492187 41.22746094 6.13109375 42.54296875 6.0859375 C43.70852295 6.0451709 44.87407715 6.0044043 46.07495117 5.96240234 C49.65227431 6.00167155 52.98737338 6.32269325 56.5 7 C58.31670816 9.20865103 58.63790995 11.21088512 59.5 14 C60.20125 13.93039063 60.9025 13.86078125 61.625 13.7890625 C67.01339448 13.4815726 70.51860479 13.44402021 74.8125 16.9375 C75.38613281 17.48277344 75.95976562 18.02804688 76.55078125 18.58984375 C81.33800608 22.05314668 86.8240681 20.87161526 92.3125 20 C98.28621887 19.13935622 103.54407013 18.93644109 109.5 20 C109.5 23 109.5 23 108 25.125 C102.04057019 29.59457236 92.43650876 28.04052872 85.30273438 27.78515625 C80.32689036 27.69751128 77.72734977 28.16402615 73.5 31 C69.64525512 30.9928217 66.36966563 29.69061682 63.375 27.3125 C61.5 25 61.5 25 60.38671875 23.25390625 C58.04935518 19.93747003 56.54955644 18.25178407 52.50390625 17.28125 C50.23454425 17.00840185 47.96211654 16.76003311 45.6875 16.53515625 C41.72168152 15.86932643 39.47646405 14.28887551 36.28125 11.98046875 C33.24078556 10.30687977 30.69968021 11.10408954 27.5 12 C26.84 12.33 26.18 12.66 25.5 13 C20.52958443 13.2845019 15.66114026 13.19352338 10.75 12.375 C4.54180426 11.43987428 -4.89187638 12.19593819 -10.5 15 C-10.768125 15.5775 -11.03625 16.155 -11.3125 16.75 C-13.12529904 20.18477712 -15.62264096 23.29848155 -19.33984375 24.6875 C-21.94730235 25.0647092 -24.08744947 24.72145456 -26.6875 24.3125 C-31.90989801 23.73845625 -35.13007188 24.63991176 -39.72265625 27.08984375 C-41.5 28 -41.5 28 -43.5 28 C-43.5 28.66 -43.5 29.32 -43.5 30 C-47.14243983 32.71563057 -49.97601531 33.41045651 -54.46484375 33.625 C-55.59470703 33.69203125 -56.72457031 33.7590625 -57.88867188 33.828125 C-59.05978516 33.88484375 -60.23089844 33.9415625 -61.4375 34 C-71.44294213 34.29022738 -71.44294213 34.29022738 -80.5 38 C-81.16 38 -81.82 38 -82.5 38 C-82.83 38.99 -83.16 39.98 -83.5 41 C-87.60670885 45.22432342 -92.35196155 49.12667621 -97.5 52 C-98.985 51.505 -98.985 51.505 -100.5 51 C-108.55814571 49.85810496 -114.3361853 51.45269626 -121.33691406 55.28344727 C-128.0781074 58.96225024 -134.77939961 61.23395759 -142.5 61 C-142.5 60.34 -142.5 59.68 -142.5 59 C-143.18707031 58.95101562 -143.87414062 58.90203125 -144.58203125 58.8515625 C-145.48308594 58.77679688 -146.38414062 58.70203125 -147.3125 58.625 C-148.20582031 58.55539063 -149.09914063 58.48578125 -150.01953125 58.4140625 C-152.5 58 -152.5 58 -155.5 56 C-159.24667202 57.6327851 -159.24667202 57.6327851 -162.5 60 C-164.83297433 60.04092937 -167.16705225 60.04241723 -169.5 60 C-169.5 59.34 -169.5 58.68 -169.5 58 C-170.40621094 58.00902344 -171.31242187 58.01804688 -172.24609375 58.02734375 C-181.14206921 57.81082795 -186.20444523 56.37882931 -192.5 50 C-191.625 46.125 -191.625 46.125 -190.5 45 C-174.98212591 44.7467946 -174.98212591 44.7467946 -169.33984375 49.91015625 C-165.08308993 52.43167284 -159.23342375 51.71900108 -154.5 51 C-151.75952623 49.61686228 -151.75952623 49.61686228 -149.5 48 C-146.65697309 46.57848655 -144.66974528 46.76077394 -141.5 47 C-139.16443537 47.99477753 -136.83124929 48.99515117 -134.5 50 C-131.82390022 50.50794161 -129.21923663 50.76147047 -126.5 51 C-126.17 50.01 -125.84 49.02 -125.5 48 C-124.365625 47.90203125 -123.23125 47.8040625 -122.0625 47.703125 C-111.03373496 46.65014577 -104.04694445 44.70371109 -95.16015625 38.0234375 C-92.7598647 36.54372836 -90.25685192 36.42884363 -87.5 36 C-86.91992188 35.37480469 -86.33984375 34.74960938 -85.7421875 34.10546875 C-82.90951154 31.44551694 -80.55527136 30.85495554 -76.8125 29.875 C-75.57242188 29.53855469 -74.33234375 29.20210937 -73.0546875 28.85546875 C-70.17560798 28.16259137 -67.35803101 27.64475486 -64.4375 27.1875 C-60.9577789 26.48641017 -59.71998156 25.43981864 -57.75 22.5 C-57.18732422 21.56994141 -57.18732422 21.56994141 -56.61328125 20.62109375 C-54.97606618 18.23707883 -53.26404698 17.637857 -50.5 17 C-49.18 17 -47.86 17 -46.5 17 C-46.17 16.01 -45.84 15.02 -45.5 14 C-43.72265625 13.15625 -43.72265625 13.15625 -41.5625 12.5 C-38.08020975 11.43824907 -37.6577569 11.23663534 -35.5 8 C-33.109375 7.8828125 -33.109375 7.8828125 -30.25 8.125 C-25.43577053 8.34049538 -25.43577053 8.34049538 -21.5 5.5 C-17.51589052 2.17990877 -15.04984137 2.76352326 -10.05078125 3.02734375 C-5.98982964 2.98381134 -3.94752703 0 0 0 Z"/>
  <path transform="translate(150.01953125,185.80859375)" fill="#FBFBFA" d="M0 0 C2.0787746 1.25054488 3.73811358 1.72695371 6.10546875 2.19140625 C9.12141101 2.81478014 10.93710648 3.72472848 13.35546875 5.62890625 C16.86261466 8.37362914 20.34055644 9.30166237 24.6015625 10.43359375 C27.90871641 11.48710419 30.23467768 13.09593412 32.98046875 15.19140625 C29.28028473 17.6581956 27.79053799 17.32027093 23.4140625 17.01953125 C22.12435547 16.931875 20.83464844 16.84421875 19.50585938 16.75390625 C18.50002808 16.6765625 18.50002808 16.6765625 17.47387695 16.59765625 C15.42280059 16.44177347 13.37110937 16.30756637 11.31835938 16.17578125 C1.23874874 15.44968624 1.23874874 15.44968624 -1.01953125 13.19140625 C-2.98977269 12.87896392 -2.98977269 12.87896392 -5.20703125 12.81640625 C-8.6852669 12.53167107 -10.85417911 11.91970908 -13.76953125 10.00390625 C-16.79294297 7.83179283 -16.79294297 7.83179283 -19.51953125 8.81640625 C-20.34453125 9.27015625 -21.16953125 9.72390625 -22.01953125 10.19140625 C-27.80358607 12.63850637 -27.80358607 12.63850637 -31.29296875 11.35546875 C-32.84344367 10.58795791 -34.39168665 9.81591929 -35.9375 9.0390625 C-38.10740181 7.94956787 -38.10740181 7.94956787 -40.95703125 8.62890625 C-43.49131847 10.54882081 -44.14575364 12.1729018 -45.01953125 15.19140625 C-46.45661215 15.24563572 -47.89428587 15.28430348 -49.33203125 15.31640625 C-50.53279297 15.35121094 -50.53279297 15.35121094 -51.7578125 15.38671875 C-54.01953125 15.19140625 -54.01953125 15.19140625 -57.01953125 13.19140625 C-59.73993959 13.99478722 -59.73993959 13.99478722 -62.64453125 15.44140625 C-70.66435295 18.99179776 -79.29669437 22.09901854 -88.01953125 19.19140625 C-91.3307931 18.99641373 -94.63551303 18.84728414 -97.95117188 18.76171875 C-102.69149298 18.54886991 -105.79219382 17.51061314 -110.01953125 15.19140625 C-114.17847509 14.8624596 -114.17847509 14.8624596 -118.01953125 16.19140625 C-121.8132344 16.30703318 -125.60323031 16.09324233 -129.39453125 15.94140625 C-130.44898438 15.91433594 -131.5034375 15.88726562 -132.58984375 15.859375 C-133.605625 15.81941406 -134.62140625 15.77945313 -135.66796875 15.73828125 C-137.06281494 15.68945801 -137.06281494 15.68945801 -138.48583984 15.63964844 C-141.41275605 15.12183979 -142.73471398 14.02873207 -145.01953125 12.19140625 C-147.68714889 11.94015799 -147.68714889 11.94015799 -150.01953125 12.19140625 C-150.01953125 9.22140625 -150.01953125 6.25140625 -150.01953125 3.19140625 C-148.36953125 3.19140625 -146.71953125 3.19140625 -145.01953125 3.19140625 C-145.01953125 2.53140625 -145.01953125 1.87140625 -145.01953125 1.19140625 C-141.33230198 1.07439421 -137.64555583 1.0038858 -133.95703125 0.94140625 C-132.91869141 0.90789062 -131.88035156 0.874375 -130.81054688 0.83984375 C-124.23168565 0.75630266 -120.39213305 1.3385444 -115.01953125 5.19140625 C-111.37534784 7.62086186 -110.09029761 7.27428435 -105.83203125 6.81640625 C-104.74535156 6.70554688 -103.65867188 6.5946875 -102.5390625 6.48046875 C-101.29189453 6.33738281 -101.29189453 6.33738281 -100.01953125 6.19140625 C-99.52453125 7.67640625 -99.52453125 7.67640625 -99.01953125 9.19140625 C-96.02845345 11.22106618 -93.58618701 11.48059455 -90.01953125 11.19140625 C-89.68953125 10.86140625 -89.35953125 10.53140625 -89.01953125 10.19140625 C-87.08674621 9.88875309 -85.14779787 9.62524318 -83.20703125 9.37890625 C-75.47225745 8.24470017 -67.59627082 6.5758993 -61.01953125 2.19140625 C-58.828125 2.1796875 -58.828125 2.1796875 -56.45703125 2.50390625 C-55.67199219 2.60316406 -54.88695313 2.70242187 -54.078125 2.8046875 C-52.01953125 3.19140625 -52.01953125 3.19140625 -50.01953125 4.19140625 C-45.19322053 4.62041165 -43.05487571 3.68947663 -39.01953125 1.19140625 C-37.65418566 0.82050528 -36.27765656 0.4892325 -34.89453125 0.19140625 C-31.61327525 -0.53708156 -30.34483521 -1.37759416 -28.01953125 -3.80859375 C-18.49979578 -5.97281296 -8.22022374 -5.41331807 0 0 Z"/>
  <path transform="translate(539,177)" fill="#FAFAF9" d="M0 0 C5.77777778 3.33333333 5.77777778 3.33333333 7 7 C7.90492188 6.96519531 7.90492188 6.96519531 8.828125 6.9296875 C10.02695312 6.90261719 10.02695312 6.90261719 11.25 6.875 C12.03890625 6.85179687 12.8278125 6.82859375 13.640625 6.8046875 C16 7 16 7 17.98046875 8.01171875 C21.1622575 9.56876431 24.19573735 8.9909395 27.66015625 8.77734375 C30.52852909 9.05029409 31.20420608 9.82671187 33 12 C35.7141007 13.93864336 36.97353597 14.00147022 40.375 13.8125 C43.99813146 13.00041881 46.71331865 11.67985935 50 10 C54 10 54 10 55.74609375 11.42578125 C56.58333984 12.35970703 56.58333984 12.35970703 57.4375 13.3125 C62.16699349 18.29302818 66.30755409 20.29408242 73 22 C73 24.31 73 26.62 73 29 C65.49269718 30.25121714 65.49269718 30.25121714 63.0234375 28.9921875 C60.47296452 27.74156948 59.14840417 28.03023773 56.375 28.5 C51.00056581 29.14302684 46.08095111 29.03973083 41 27 C39.80031072 25.51617379 38.60072735 24.02682525 37.52734375 22.44921875 C34.67445114 19.74225415 30.74083564 19.48864351 26.9921875 18.71875 C24.24926503 18.05987567 22.25198927 17.24660039 19.8125 15.875 C15.63219825 13.584543 11.68465803 13.33843537 7 13 C5.32829127 12.69295146 3.6579309 12.37437149 2 12 C2 11.34 2 10.68 2 10 C-0.31 9.34 -2.62 8.68 -5 8 C-5.33 8.99 -5.66 9.98 -6 11 C-9.73487777 10.5020163 -11.81237635 10.12508244 -15 8 C-15 7.01 -15 6.02 -15 5 C-13.57421875 3.6484375 -13.57421875 3.6484375 -11.6875 2.375 C-11.07261719 1.94960937 -10.45773437 1.52421875 -9.82421875 1.0859375 C-6.18707815 -1.07921258 -3.96887435 -1.19989224 0 0 Z"/>
  <path transform="translate(187,203)" fill="#F7F7F5" d="M0 0 C5.625 -0.25 5.625 -0.25 9 2 C12.58415926 1.85628523 16.09114739 1.41924326 19.65234375 0.99609375 C23 1 23 1 25.44140625 2.22265625 C27 4 27 4 27 8 C23.56367253 9.14544249 20.74568045 9.2397802 17.125 9.3125 C15.91070312 9.34988281 14.69640625 9.38726562 13.4453125 9.42578125 C9.39965065 8.92580717 7.93480862 7.73949736 5 5 C4.071875 4.46375 3.14375 3.9275 2.1875 3.375 C1.465625 2.92125 0.74375 2.4675 0 2 C0 1.34 0 0.68 0 0 Z"/>
  <path transform="translate(422,170)" fill="#EAEAEB" d="M0 0 C0.7734375 0.433125 0.7734375 0.433125 1.5625 0.875 C4.62356725 2.28780027 7.74944918 3.1248517 11 4 C11 4.33 11 4.66 11 5 C9.56163249 4.88541307 8.12429034 4.75790884 6.6875 4.625 C5.88699219 4.55539063 5.08648437 4.48578125 4.26171875 4.4140625 C2 4 2 4 -1 2 C-0.67 1.34 -0.34 0.68 0 0 Z"/>
  <path transform="translate(431,170)" fill="#FEFCF2" d="M0 0 C0.33 1.32 0.66 2.64 1 4 C-1.9375 3.625 -1.9375 3.625 -5 3 C-5.33 2.34 -5.66 1.68 -6 1 C-4.02 0.67 -2.04 0.34 0 0 Z"/>
</svg>