<svg xmlns="http://www.w3.org/2000/svg" version="1.1" viewBox="0 44.064 611.184 188.496" style="max-height: 500px" width="611.184" height="188.496">
<path transform="translate(0,0)" fill="#FBF5DE" d="M0 0 C201.96 0 403.92 0 612 0 C612 67.98 612 135.96 612 206 C603.56420233 207.05447471 603.56420233 207.05447471 600 205 C597.73456959 205.04877731 597.73456959 205.04877731 595.375 205.5 C590.00056581 206.14302684 585.08095111 206.03973083 580 204 C578.80031072 202.51617379 577.60072735 201.02682525 576.52734375 199.44921875 C573.67445114 196.74225415 569.74083564 196.48864351 565.9921875 195.71875 C563.24926503 195.05987567 561.25198927 194.24660039 558.8125 192.875 C554.63219825 190.584543 550.68465803 190.33843537 546 190 C544.32829127 189.69295146 542.6579309 189.37437149 541 189 C541 188.34 541 187.68 541 187 C538.69 186.34 536.38 185.68 534 185 C533.67 185.99 533.34 186.98 533 188 C528.78087253 187.5205537 526.20336822 186.83374881 523 184 C522.34 184.804375 521.68 185.60875 521 186.4375 C514.90017916 191.64776363 505.45327041 190.05902758 497.80273438 189.78515625 C492.82689036 189.69751128 490.22734977 190.16402615 486 193 C482.14525512 192.9928217 478.86966563 191.69061682 475.875 189.3125 C474 187 474 187 472.88671875 185.25390625 C470.54935518 181.93747003 469.04955644 180.25178407 465.00390625 179.28125 C462.73454425 179.00840185 460.46211654 178.76003311 458.1875 178.53515625 C454.22168152 177.86932643 451.97646405 176.28887551 448.78125 173.98046875 C445.74078556 172.30687977 443.19968021 173.10408954 440 174 C439.34 174.33 438.68 174.66 438 175 C433.02958443 175.2845019 428.16114026 175.19352338 423.25 174.375 C417.04180426 173.43987428 407.60812362 174.19593819 402 177 C401.731875 177.5775 401.46375 178.155 401.1875 178.75 C399.37470096 182.18477712 396.87735904 185.29848155 393.16015625 186.6875 C390.55269765 187.0647092 388.41255053 186.72145456 385.8125 186.3125 C380.59010199 185.73845625 377.36992812 186.63991176 372.77734375 189.08984375 C371 190 371 190 369 190 C369 190.66 369 191.32 369 192 C365.35756017 194.71563057 362.52398469 195.41045651 358.03515625 195.625 C356.90529297 195.69203125 355.77542969 195.7590625 354.61132812 195.828125 C353.44021484 195.88484375 352.26910156 195.9415625 351.0625 196 C341.05705787 196.29022738 341.05705787 196.29022738 332 200 C331.34 200 330.68 200 330 200 C329.67 200.99 329.34 201.98 329 203 C324.89329115 207.22432342 320.14803845 211.12667621 315 214 C314.01 213.67 313.02 213.34 312 213 C303.94185429 211.85810496 298.1638147 213.45269626 291.16308594 217.28344727 C284.4218926 220.96225024 277.72060039 223.23395759 270 223 C270 222.34 270 221.68 270 221 C268.96939453 220.92652344 268.96939453 220.92652344 267.91796875 220.8515625 C267.01691406 220.77679688 266.11585938 220.70203125 265.1875 220.625 C264.29417969 220.55539063 263.40085937 220.48578125 262.48046875 220.4140625 C260 220 260 220 257 218 C253.25332798 219.6327851 253.25332798 219.6327851 250 222 C247.66702567 222.04092937 245.33294775 222.04241723 243 222 C243 221.34 243 220.68 243 220 C242.09378906 220.00902344 241.18757812 220.01804688 240.25390625 220.02734375 C232.27236999 219.83308414 227.83566356 218.97918925 221.8984375 213.59375 C219.35758753 211.46069077 217.28755108 211 214 211 C213.01 211.33 212.02 211.66 211 212 C208.71238153 212.17143087 206.41857031 212.26643463 204.125 212.3125 C202.91070312 212.34988281 201.69640625 212.38726562 200.4453125 212.42578125 C196.38618905 211.92414354 194.94881849 210.74580173 192 208 C182.09965494 201.22258258 168.78508677 201.75385828 157.22143555 201.42895508 C151.21218737 201.21218737 151.21218737 201.21218737 149 199 C147.02975856 198.68755767 147.02975856 198.68755767 144.8125 198.625 C141.33426435 198.34026482 139.16535214 197.72830283 136.25 195.8125 C133.22658828 193.64038658 133.22658828 193.64038658 130.5 194.625 C129.675 195.07875 128.85 195.5325 128 196 C122.21594518 198.44710012 122.21594518 198.44710012 118.7265625 197.1640625 C117.17608758 196.39655166 115.6278446 195.62451304 114.08203125 194.84765625 C111.91212944 193.75816162 111.91212944 193.75816162 109.0625 194.4375 C106.52821278 196.35741456 105.87377761 197.98149555 105 201 C103.5629191 201.05422947 102.12524538 201.09289723 100.6875 201.125 C99.88699219 201.14820313 99.08648437 201.17140625 98.26171875 201.1953125 C96 201 96 201 93 199 C90.27959166 199.80338097 90.27959166 199.80338097 87.375 201.25 C79.3551783 204.80039151 70.72283688 207.90761229 62 205 C58.68873815 204.80500748 55.38401822 204.65587789 52.06835938 204.5703125 C47.32803827 204.35746366 44.22733743 203.31920689 40 201 C35.84105616 200.67105335 35.84105616 200.67105335 32 202 C28.20629685 202.11562693 24.41630094 201.90183608 20.625 201.75 C19.57054688 201.72292969 18.51609375 201.69585937 17.4296875 201.66796875 C16.41390625 201.62800781 15.398125 201.58804688 14.3515625 201.546875 C13.42166504 201.51432617 12.49176758 201.48177734 11.53369141 201.44824219 C9 201 9 201 6.97802734 199.46582031 C4.74079436 197.50384266 4.74079436 197.50384266 0 198 C0 132.66 0 67.32 0 0 Z"/>
<path transform="translate(412.5,162)" fill="#FAFAF9" d="M0 0 C3.34624314 1.33849726 5.17863335 3.28068478 7.5 6 C7.5 6.66 7.5 7.32 7.5 8 C9.29158489 8.02696365 11.08328473 8.04637917 12.875 8.0625 C14.37160156 8.07990234 14.37160156 8.07990234 15.8984375 8.09765625 C18.48432453 8.18006602 18.48432453 8.18006602 20.5 7 C24.54575786 6.67787533 28.60039794 6.57416046 32.65649414 6.44238281 C34.66255312 6.37582766 36.66820549 6.29736333 38.67382812 6.21875 C39.95064453 6.17492187 41.22746094 6.13109375 42.54296875 6.0859375 C43.70852295 6.0451709 44.87407715 6.0044043 46.07495117 5.96240234 C49.65227431 6.00167155 52.98737338 6.32269325 56.5 7 C58.31670816 9.20865103 58.63790995 11.21088512 59.5 14 C60.20125 13.93039063 60.9025 13.86078125 61.625 13.7890625 C67.01339448 13.4815726 70.51860479 13.44402021 74.8125 16.9375 C75.38613281 17.48277344 75.95976562 18.02804688 76.55078125 18.58984375 C81.33800608 22.05314668 86.8240681 20.87161526 92.3125 20 C98.28621887 19.13935622 103.54407013 18.93644109 109.5 20 C109.5 23 109.5 23 108 25.125 C102.04057019 29.59457236 92.43650876 28.04052872 85.30273438 27.78515625 C80.32689036 27.69751128 77.72734977 28.16402615 73.5 31 C69.64525512 30.9928217 66.36966563 29.69061682 63.375 27.3125 C61.5 25 61.5 25 60.38671875 23.25390625 C58.04935518 19.93747003 56.54955644 18.25178407 52.50390625 17.28125 C50.23454425 17.00840185 47.96211654 16.76003311 45.6875 16.53515625 C41.72168152 15.86932643 39.47646405 14.28887551 36.28125 11.98046875 C33.24078556 10.30687977 30.69968021 11.10408954 27.5 12 C26.84 12.33 26.18 12.66 25.5 13 C20.52958443 13.2845019 15.66114026 13.19352338 10.75 12.375 C4.54180426 11.43987428 -4.89187638 12.19593819 -10.5 15 C-10.768125 15.5775 -11.03625 16.155 -11.3125 16.75 C-13.12529904 20.18477712 -15.62264096 23.29848155 -19.33984375 24.6875 C-21.94730235 25.0647092 -24.08744947 24.72145456 -26.6875 24.3125 C-31.90989801 23.73845625 -35.13007188 24.63991176 -39.72265625 27.08984375 C-41.5 28 -41.5 28 -43.5 28 C-43.5 28.66 -43.5 29.32 -43.5 30 C-47.14243983 32.71563057 -49.97601531 33.41045651 -54.46484375 33.625 C-55.59470703 33.69203125 -56.72457031 33.7590625 -57.88867188 33.828125 C-59.05978516 33.88484375 -60.23089844 33.9415625 -61.4375 34 C-71.44294213 34.29022738 -71.44294213 34.29022738 -80.5 38 C-81.16 38 -81.82 38 -82.5 38 C-82.83 38.99 -83.16 39.98 -83.5 41 C-87.60670885 45.22432342 -92.35196155 49.12667621 -97.5 52 C-98.985 51.505 -98.985 51.505 -100.5 51 C-108.55814571 49.85810496 -114.3361853 51.45269626 -121.33691406 55.28344727 C-128.0781074 58.96225024 -134.77939961 61.23395759 -142.5 61 C-142.5 60.34 -142.5 59.68 -142.5 59 C-143.18707031 58.95101562 -143.87414062 58.90203125 -144.58203125 58.8515625 C-145.48308594 58.77679688 -146.38414062 58.70203125 -147.3125 58.625 C-148.20582031 58.55539063 -149.09914063 58.48578125 -150.01953125 58.4140625 C-152.5 58 -152.5 58 -155.5 56 C-159.24667202 57.6327851 -159.24667202 57.6327851 -162.5 60 C-164.83297433 60.04092937 -167.16705225 60.04241723 -169.5 60 C-169.5 59.34 -169.5 58.68 -169.5 58 C-170.40621094 58.00902344 -171.31242187 58.01804688 -172.24609375 58.02734375 C-181.14206921 57.81082795 -186.20444523 56.37882931 -192.5 50 C-191.625 46.125 -191.625 46.125 -190.5 45 C-174.98212591 44.7467946 -174.98212591 44.7467946 -169.33984375 49.91015625 C-165.08308993 52.43167284 -159.23342375 51.71900108 -154.5 51 C-151.75952623 49.61686228 -151.75952623 49.61686228 -149.5 48 C-146.65697309 46.57848655 -144.66974528 46.76077394 -141.5 47 C-139.16443537 47.99477753 -136.83124929 48.99515117 -134.5 50 C-131.82390022 50.50794161 -129.21923663 50.76147047 -126.5 51 C-126.17 50.01 -125.84 49.02 -125.5 48 C-124.365625 47.90203125 -123.23125 47.8040625 -122.0625 47.703125 C-111.03373496 46.65014577 -104.04694445 44.70371109 -95.16015625 38.0234375 C-92.7598647 36.54372836 -90.25685192 36.42884363 -87.5 36 C-86.91992188 35.37480469 -86.33984375 34.74960938 -85.7421875 34.10546875 C-82.90951154 31.44551694 -80.55527136 30.85495554 -76.8125 29.875 C-75.57242188 29.53855469 -74.33234375 29.20210937 -73.0546875 28.85546875 C-70.17560798 28.16259137 -67.35803101 27.64475486 -64.4375 27.1875 C-60.9577789 26.48641017 -59.71998156 25.43981864 -57.75 22.5 C-57.18732422 21.56994141 -57.18732422 21.56994141 -56.61328125 20.62109375 C-54.97606618 18.23707883 -53.26404698 17.637857 -50.5 17 C-49.18 17 -47.86 17 -46.5 17 C-46.17 16.01 -45.84 15.02 -45.5 14 C-43.72265625 13.15625 -43.72265625 13.15625 -41.5625 12.5 C-38.08020975 11.43824907 -37.6577569 11.23663534 -35.5 8 C-33.109375 7.8828125 -33.109375 7.8828125 -30.25 8.125 C-25.43577053 8.34049538 -25.43577053 8.34049538 -21.5 5.5 C-17.51589052 2.17990877 -15.04984137 2.76352326 -10.05078125 3.02734375 C-5.98982964 2.98381134 -3.94752703 0 0 0 Z"/>
<path transform="translate(150.01953125,185.80859375)" fill="#FBFBFA" d="M0 0 C2.0787746 1.25054488 3.73811358 1.72695371 6.10546875 2.19140625 C9.12141101 2.81478014 10.93710648 3.72472848 13.35546875 5.62890625 C16.86261466 8.37362914 20.34055644 9.30166237 24.6015625 10.43359375 C27.90871641 11.48710419 30.23467768 13.09593412 32.98046875 15.19140625 C29.28028473 17.6581956 27.79053799 17.32027093 23.4140625 17.01953125 C22.12435547 16.931875 20.83464844 16.84421875 19.50585938 16.75390625 C18.50002808 16.6765625 18.50002808 16.6765625 17.47387695 16.59765625 C15.42280059 16.44177347 13.37110937 16.30756637 11.31835938 16.17578125 C1.23874874 15.44968624 1.23874874 15.44968624 -1.01953125 13.19140625 C-2.98977269 12.87896392 -2.98977269 12.87896392 -5.20703125 12.81640625 C-8.6852669 12.53167107 -10.85417911 11.91970908 -13.76953125 10.00390625 C-16.79294297 7.83179283 -16.79294297 7.83179283 -19.51953125 8.81640625 C-20.34453125 9.27015625 -21.16953125 9.72390625 -22.01953125 10.19140625 C-27.80358607 12.63850637 -27.80358607 12.63850637 -31.29296875 11.35546875 C-32.84344367 10.58795791 -34.39168665 9.81591929 -35.9375 9.0390625 C-38.10740181 7.94956787 -38.10740181 7.94956787 -40.95703125 8.62890625 C-43.49131847 10.54882081 -44.14575364 12.1729018 -45.01953125 15.19140625 C-46.45661215 15.24563572 -47.89428587 15.28430348 -49.33203125 15.31640625 C-50.53279297 15.35121094 -50.53279297 15.35121094 -51.7578125 15.38671875 C-54.01953125 15.19140625 -54.01953125 15.19140625 -57.01953125 13.19140625 C-59.73993959 13.99478722 -59.73993959 13.99478722 -62.64453125 15.44140625 C-70.66435295 18.99179776 -79.29669437 22.09901854 -88.01953125 19.19140625 C-91.3307931 18.99641373 -94.63551303 18.84728414 -97.95117188 18.76171875 C-102.69149298 18.54886991 -105.79219382 17.51061314 -110.01953125 15.19140625 C-114.17847509 14.8624596 -114.17847509 14.8624596 -118.01953125 16.19140625 C-121.8132344 16.30703318 -125.60323031 16.09324233 -129.39453125 15.94140625 C-130.44898438 15.91433594 -131.5034375 15.88726562 -132.58984375 15.859375 C-133.605625 15.81941406 -134.62140625 15.77945313 -135.66796875 15.73828125 C-137.06281494 15.68945801 -137.06281494 15.68945801 -138.48583984 15.63964844 C-141.41275605 15.12183979 -142.73471398 14.02873207 -145.01953125 12.19140625 C-147.68714889 11.94015799 -147.68714889 11.94015799 -150.01953125 12.19140625 C-150.01953125 9.22140625 -150.01953125 6.25140625 -150.01953125 3.19140625 C-148.36953125 3.19140625 -146.71953125 3.19140625 -145.01953125 3.19140625 C-145.01953125 2.53140625 -145.01953125 1.87140625 -145.01953125 1.19140625 C-141.33230198 1.07439421 -137.64555583 1.0038858 -133.95703125 0.94140625 C-132.91869141 0.90789062 -131.88035156 0.874375 -130.81054688 0.83984375 C-124.23168565 0.75630266 -120.39213305 1.3385444 -115.01953125 5.19140625 C-111.37534784 7.62086186 -110.09029761 7.27428435 -105.83203125 6.81640625 C-104.74535156 6.70554688 -103.65867188 6.5946875 -102.5390625 6.48046875 C-101.29189453 6.33738281 -101.29189453 6.33738281 -100.01953125 6.19140625 C-99.52453125 7.67640625 -99.52453125 7.67640625 -99.01953125 9.19140625 C-96.02845345 11.22106618 -93.58618701 11.48059455 -90.01953125 11.19140625 C-89.68953125 10.86140625 -89.35953125 10.53140625 -89.01953125 10.19140625 C-87.08674621 9.88875309 -85.14779787 9.62524318 -83.20703125 9.37890625 C-75.47225745 8.24470017 -67.59627082 6.5758993 -61.01953125 2.19140625 C-58.828125 2.1796875 -58.828125 2.1796875 -56.45703125 2.50390625 C-55.67199219 2.60316406 -54.88695313 2.70242187 -54.078125 2.8046875 C-52.01953125 3.19140625 -52.01953125 3.19140625 -50.01953125 4.19140625 C-45.19322053 4.62041165 -43.05487571 3.68947663 -39.01953125 1.19140625 C-37.65418566 0.82050528 -36.27765656 0.4892325 -34.89453125 0.19140625 C-31.61327525 -0.53708156 -30.34483521 -1.37759416 -28.01953125 -3.80859375 C-18.49979578 -5.97281296 -8.22022374 -5.41331807 0 0 Z"/>
<path transform="translate(539,177)" fill="#FAFAF9" d="M0 0 C5.77777778 3.33333333 5.77777778 3.33333333 7 7 C7.90492188 6.96519531 7.90492188 6.96519531 8.828125 6.9296875 C10.02695312 6.90261719 10.02695312 6.90261719 11.25 6.875 C12.03890625 6.85179687 12.8278125 6.82859375 13.640625 6.8046875 C16 7 16 7 17.98046875 8.01171875 C21.1622575 9.56876431 24.19573735 8.9909395 27.66015625 8.77734375 C30.52852909 9.05029409 31.20420608 9.82671187 33 12 C35.7141007 13.93864336 36.97353597 14.00147022 40.375 13.8125 C43.99813146 13.00041881 46.71331865 11.67985935 50 10 C54 10 54 10 55.74609375 11.42578125 C56.58333984 12.35970703 56.58333984 12.35970703 57.4375 13.3125 C62.16699349 18.29302818 66.30755409 20.29408242 73 22 C73 24.31 73 26.62 73 29 C65.49269718 30.25121714 65.49269718 30.25121714 63.0234375 28.9921875 C60.47296452 27.74156948 59.14840417 28.03023773 56.375 28.5 C51.00056581 29.14302684 46.08095111 29.03973083 41 27 C39.80031072 25.51617379 38.60072735 24.02682525 37.52734375 22.44921875 C34.67445114 19.74225415 30.74083564 19.48864351 26.9921875 18.71875 C24.24926503 18.05987567 22.25198927 17.24660039 19.8125 15.875 C15.63219825 13.584543 11.68465803 13.33843537 7 13 C5.32829127 12.69295146 3.6579309 12.37437149 2 12 C2 11.34 2 10.68 2 10 C-0.31 9.34 -2.62 8.68 -5 8 C-5.33 8.99 -5.66 9.98 -6 11 C-9.73487777 10.5020163 -11.81237635 10.12508244 -15 8 C-15 7.01 -15 6.02 -15 5 C-13.57421875 3.6484375 -13.57421875 3.6484375 -11.6875 2.375 C-11.07261719 1.94960937 -10.45773437 1.52421875 -9.82421875 1.0859375 C-6.18707815 -1.07921258 -3.96887435 -1.19989224 0 0 Z"/>
<path transform="translate(187,203)" fill="#F7F7F5" d="M0 0 C5.625 -0.25 5.625 -0.25 9 2 C12.58415926 1.85628523 16.09114739 1.41924326 19.65234375 0.99609375 C23 1 23 1 25.44140625 2.22265625 C27 4 27 4 27 8 C23.56367253 9.14544249 20.74568045 9.2397802 17.125 9.3125 C15.91070312 9.34988281 14.69640625 9.38726562 13.4453125 9.42578125 C9.39965065 8.92580717 7.93480862 7.73949736 5 5 C4.071875 4.46375 3.14375 3.9275 2.1875 3.375 C1.465625 2.92125 0.74375 2.4675 0 2 C0 1.34 0 0.68 0 0 Z"/>
<path transform="translate(422,170)" fill="#EAEAEB" d="M0 0 C0.7734375 0.433125 0.7734375 0.433125 1.5625 0.875 C4.62356725 2.28780027 7.74944918 3.1248517 11 4 C11 4.33 11 4.66 11 5 C9.56163249 4.88541307 8.12429034 4.75790884 6.6875 4.625 C5.88699219 4.55539063 5.08648437 4.48578125 4.26171875 4.4140625 C2 4 2 4 -1 2 C-0.67 1.34 -0.34 0.68 0 0 Z"/>
<path transform="translate(431,170)" fill="#FEFCF2" d="M0 0 C0.33 1.32 0.66 2.64 1 4 C-1.9375 3.625 -1.9375 3.625 -5 3 C-5.33 2.34 -5.66 1.68 -6 1 C-4.02 0.67 -2.04 0.34 0 0 Z"/>
</svg>